<mxfile host="app.diagrams.net" modified="2024-05-23T19:03:12.878Z" agent="Mozilla/5.0 (Macintosh; Intel Mac OS X 10_15_7) AppleWebKit/537.36 (KHTML, like Gecko) Chrome/124.0.0.0 Safari/537.36" etag="RzORoGZ-Wo_VkEEue686" version="24.4.6" type="device">
  <diagram id="C5RBs43oDa-KdzZeNtuy" name="Page-1">
    <mxGraphModel dx="1207" dy="665" grid="1" gridSize="10" guides="1" tooltips="1" connect="1" arrows="1" fold="1" page="1" pageScale="1" pageWidth="827" pageHeight="1169" math="0" shadow="0">
      <root>
        <mxCell id="WIyWlLk6GJQsqaUBKTNV-0" />
        <mxCell id="WIyWlLk6GJQsqaUBKTNV-1" parent="WIyWlLk6GJQsqaUBKTNV-0" />
        <mxCell id="HnpMmuLs4L-R6NWZxOnk-1" value="Announcement Generator" style="rounded=1;whiteSpace=wrap;html=1;" vertex="1" parent="WIyWlLk6GJQsqaUBKTNV-1">
          <mxGeometry x="80" y="70" width="120" height="60" as="geometry" />
        </mxCell>
        <mxCell id="HnpMmuLs4L-R6NWZxOnk-2" value="Bulletin" style="rounded=1;whiteSpace=wrap;html=1;" vertex="1" parent="WIyWlLk6GJQsqaUBKTNV-1">
          <mxGeometry x="370" y="350" width="120" height="60" as="geometry" />
        </mxCell>
        <mxCell id="HnpMmuLs4L-R6NWZxOnk-3" value="Council Voting" style="rounded=1;whiteSpace=wrap;html=1;" vertex="1" parent="WIyWlLk6GJQsqaUBKTNV-1">
          <mxGeometry x="370" y="70" width="120" height="60" as="geometry" />
        </mxCell>
        <mxCell id="HnpMmuLs4L-R6NWZxOnk-9" style="edgeStyle=orthogonalEdgeStyle;rounded=0;orthogonalLoop=1;jettySize=auto;html=1;exitX=0.5;exitY=0;exitDx=0;exitDy=0;entryX=0.5;entryY=1;entryDx=0;entryDy=0;" edge="1" parent="WIyWlLk6GJQsqaUBKTNV-1" source="HnpMmuLs4L-R6NWZxOnk-4" target="HnpMmuLs4L-R6NWZxOnk-3">
          <mxGeometry relative="1" as="geometry" />
        </mxCell>
        <mxCell id="HnpMmuLs4L-R6NWZxOnk-10" value="Only members with&amp;nbsp;&lt;div&gt;council role can vote&lt;/div&gt;" style="edgeLabel;html=1;align=center;verticalAlign=middle;resizable=0;points=[];" vertex="1" connectable="0" parent="HnpMmuLs4L-R6NWZxOnk-9">
          <mxGeometry x="-0.096" y="-2" relative="1" as="geometry">
            <mxPoint as="offset" />
          </mxGeometry>
        </mxCell>
        <mxCell id="HnpMmuLs4L-R6NWZxOnk-11" style="edgeStyle=orthogonalEdgeStyle;rounded=0;orthogonalLoop=1;jettySize=auto;html=1;exitX=0.5;exitY=1;exitDx=0;exitDy=0;entryX=0.5;entryY=0;entryDx=0;entryDy=0;" edge="1" parent="WIyWlLk6GJQsqaUBKTNV-1" source="HnpMmuLs4L-R6NWZxOnk-4" target="HnpMmuLs4L-R6NWZxOnk-2">
          <mxGeometry relative="1" as="geometry" />
        </mxCell>
        <mxCell id="HnpMmuLs4L-R6NWZxOnk-12" value="Bulletin can be sent only&lt;div&gt;to members which has email&lt;/div&gt;&lt;div&gt;and have consent&amp;nbsp;&lt;/div&gt;" style="edgeLabel;html=1;align=center;verticalAlign=middle;resizable=0;points=[];" vertex="1" connectable="0" parent="HnpMmuLs4L-R6NWZxOnk-11">
          <mxGeometry x="0.1008" y="1" relative="1" as="geometry">
            <mxPoint as="offset" />
          </mxGeometry>
        </mxCell>
        <mxCell id="HnpMmuLs4L-R6NWZxOnk-4" value="Community Members" style="rounded=1;whiteSpace=wrap;html=1;" vertex="1" parent="WIyWlLk6GJQsqaUBKTNV-1">
          <mxGeometry x="370" y="200" width="120" height="60" as="geometry" />
        </mxCell>
        <mxCell id="HnpMmuLs4L-R6NWZxOnk-6" style="edgeStyle=orthogonalEdgeStyle;rounded=0;orthogonalLoop=1;jettySize=auto;html=1;exitX=0.5;exitY=0;exitDx=0;exitDy=0;entryX=0.5;entryY=1;entryDx=0;entryDy=0;" edge="1" parent="WIyWlLk6GJQsqaUBKTNV-1" source="HnpMmuLs4L-R6NWZxOnk-5" target="HnpMmuLs4L-R6NWZxOnk-1">
          <mxGeometry relative="1" as="geometry" />
        </mxCell>
        <mxCell id="HnpMmuLs4L-R6NWZxOnk-7" value="PDF announcement can be generated&lt;div&gt;based on one news created by CMS&lt;/div&gt;" style="edgeLabel;html=1;align=center;verticalAlign=middle;resizable=0;points=[];" vertex="1" connectable="0" parent="HnpMmuLs4L-R6NWZxOnk-6">
          <mxGeometry x="-0.0229" y="1" relative="1" as="geometry">
            <mxPoint as="offset" />
          </mxGeometry>
        </mxCell>
        <mxCell id="HnpMmuLs4L-R6NWZxOnk-8" value="Bulletin can be generated&lt;div&gt;based on many news&amp;nbsp;&lt;/div&gt;&lt;div&gt;created by CMS&lt;/div&gt;" style="edgeStyle=orthogonalEdgeStyle;rounded=0;orthogonalLoop=1;jettySize=auto;html=1;exitX=1;exitY=0.5;exitDx=0;exitDy=0;entryX=0;entryY=0.5;entryDx=0;entryDy=0;" edge="1" parent="WIyWlLk6GJQsqaUBKTNV-1" source="HnpMmuLs4L-R6NWZxOnk-5" target="HnpMmuLs4L-R6NWZxOnk-2">
          <mxGeometry relative="1" as="geometry" />
        </mxCell>
        <mxCell id="HnpMmuLs4L-R6NWZxOnk-5" value="CMS" style="rounded=1;whiteSpace=wrap;html=1;" vertex="1" parent="WIyWlLk6GJQsqaUBKTNV-1">
          <mxGeometry x="80" y="350" width="120" height="60" as="geometry" />
        </mxCell>
      </root>
    </mxGraphModel>
  </diagram>
</mxfile>
